<svg width="30" height="27" viewBox="0 0 30 27" fill="none" xmlns="http://www.w3.org/2000/svg">
<g clip-path="url(#clip0_393_1772)">
<path d="M30 15.1334C29.8591 15.5466 29.773 15.9903 29.5656 16.3676C28.9787 17.4335 28.0552 18.0267 26.8382 18.141C26.6543 18.1582 26.4704 18.1645 26.2568 18.1778V19.0958C26.2568 19.7305 25.9821 20.2157 25.4186 20.5045C24.8551 20.7933 24.3033 20.7275 23.7899 20.3581C23.5372 20.1758 23.2859 19.9911 22.9705 19.761C22.9705 19.9746 22.9705 20.1335 22.9705 20.2916C22.9547 20.9853 22.7271 21.6575 22.3182 22.218C21.9093 22.7786 21.3387 23.2006 20.683 23.4275C20.3378 23.5457 20.0921 23.4612 20.0021 23.1928C19.916 22.9392 20.0522 22.7232 20.3762 22.6003C21.4797 22.1801 22.0392 21.3043 22.112 20.1304C22.1574 19.3869 21.961 18.8907 21.3012 18.5127C20.9342 18.303 20.6102 18.1465 20.1743 18.1527C18.7491 18.1731 17.3232 18.1613 15.8981 18.1402C15.171 18.1292 14.5386 17.8342 13.9611 17.4014C13.8325 17.306 13.6781 17.2514 13.5181 17.2449C12.0311 17.2339 10.5497 17.2386 9.06582 17.2371C8.95878 17.2429 8.85144 17.2347 8.74651 17.2128C8.64348 17.1937 8.55195 17.1352 8.49131 17.0497C8.43068 16.9642 8.40572 16.8585 8.42173 16.755C8.42317 16.6507 8.4656 16.5512 8.53986 16.4779C8.61412 16.4047 8.71422 16.3636 8.81851 16.3637C8.96408 16.3519 9.11121 16.359 9.25756 16.359H13.0509C12.9241 15.9489 12.8028 15.5544 12.6713 15.1287H9.0713C8.62755 15.1287 8.41703 14.9823 8.42016 14.6795C8.42329 14.3766 8.62051 14.2482 9.08147 14.2482H12.6682V13.007C12.5751 13 12.4905 12.9875 12.406 12.9875C11.4199 12.9875 10.4338 12.9812 9.44773 12.9921C9.30502 12.9971 9.16675 13.0431 9.04938 13.1244C8.26833 13.6801 7.49537 14.2451 6.73049 14.8196C6.67875 14.8638 6.63639 14.918 6.60588 14.9789C6.57537 15.0398 6.55734 15.1061 6.55284 15.1741C6.54084 16.8082 6.53875 18.4423 6.54658 20.0764C6.55441 21.6416 7.60311 22.7044 9.16599 22.7459C9.34208 22.7506 9.51739 22.7459 9.69348 22.7459C10.1435 22.7459 10.2726 22.8742 10.2765 23.3172C10.2765 23.6889 10.2812 24.0607 10.2765 24.4324C10.2726 24.7455 10.3274 25.0217 10.635 25.1767C10.9425 25.3316 11.1938 25.2307 11.4481 25.0429C12.4138 24.3291 13.384 23.6208 14.3586 22.9181C14.4802 22.8232 14.6268 22.7661 14.7805 22.7537C16.0593 22.7404 17.3388 22.742 18.6153 22.7482C18.998 22.7482 19.2101 23.0668 19.0551 23.3743C18.9385 23.6044 18.728 23.6263 18.5073 23.6263C17.5016 23.6263 16.4952 23.6451 15.4903 23.6169C15.0834 23.5967 14.6834 23.7283 14.368 23.9863C13.5729 24.6022 12.7441 25.1736 11.9365 25.7738C11.4105 26.1651 10.8486 26.2614 10.2601 25.9734C9.65669 25.6776 9.39921 25.1532 9.39921 24.4864C9.39921 24.2141 9.39921 23.9386 9.39921 23.6443C9.17852 23.6279 8.97738 23.6162 8.77312 23.5966C7.93634 23.5244 7.15608 23.1445 6.5833 22.5302C6.01052 21.9159 5.68595 21.111 5.6724 20.2713C5.64266 18.7945 5.66457 17.3161 5.66301 15.8385V15.4997C5.393 15.4848 5.15431 15.4997 4.9297 15.4543C4.59862 15.3818 4.30175 15.1996 4.08724 14.9372C3.87273 14.6748 3.75316 14.3476 3.74795 14.0088C3.73934 13.6863 3.74795 13.3639 3.74795 13.0086C3.62977 13.0015 3.52725 12.9921 3.42394 12.989C1.44158 12.928 0 11.4449 0 9.45316C0 7.48567 0 5.51869 0 3.55224C0 1.38283 1.76871 -0.206662 3.91856 0.0218617C4.19012 0.0508185 4.34352 0.204211 4.34665 0.449952C4.34978 0.695694 4.19012 0.871 3.9029 0.894478C3.54368 0.924217 3.17507 0.904652 2.82759 0.982914C2.27906 1.10747 1.78871 1.41372 1.43611 1.85198C1.08351 2.29025 0.889349 2.8348 0.885138 3.39728C0.871573 5.46182 0.871573 7.52662 0.885138 9.59168C0.889386 10.2348 1.13892 10.8521 1.58281 11.3175C2.02669 11.7829 2.63147 12.0614 3.27368 12.0961C3.50847 12.1101 3.74325 12.1062 3.97803 12.1086C4.49221 12.1086 4.62448 12.2408 4.62526 12.7464C4.62526 13.1088 4.63387 13.4711 4.62526 13.8327C4.61665 14.1395 4.68787 14.3985 4.97822 14.5472C5.26857 14.6959 5.537 14.5996 5.79057 14.4126C6.74145 13.7082 7.69155 13.0039 8.65729 12.3261C8.84752 12.1981 9.06986 12.126 9.29904 12.118C10.2945 12.0961 11.2908 12.1086 12.2863 12.1086H12.6885V11.7525C12.6885 10.7836 12.712 9.81473 12.6839 8.84663C12.6189 6.62088 14.379 5.12373 16.2244 5.1926C16.2815 5.1926 16.3394 5.18321 16.4506 5.17304C16.3856 4.27929 16.6071 3.37302 16.2494 2.50823C15.8503 1.53779 15.1068 0.964913 14.0534 0.922652C12.8639 0.875695 11.6711 0.903087 10.48 0.901522C8.95704 0.901522 7.43406 0.901522 5.91031 0.901522C5.80323 0.905613 5.69601 0.899059 5.59022 0.881956C5.48501 0.868289 5.38949 0.813533 5.32452 0.729652C5.25956 0.645771 5.23044 0.539586 5.24352 0.4343C5.24199 0.335117 5.27758 0.238941 5.34332 0.164658C5.40906 0.0903752 5.5002 0.0433508 5.59883 0.0328183C5.69562 0.0204323 5.7932 0.0154613 5.89075 0.0179486C8.50781 0.0179486 11.1249 0.0179486 13.7419 0.0179486C15.8456 0.0226443 17.3083 1.49396 17.3169 3.60389C17.3169 4.12042 17.3169 4.63773 17.3169 5.19025H26.3655C28.2876 5.19025 29.5743 6.24679 29.9593 8.12898C29.9687 8.15704 29.9824 8.18345 30 8.20724V15.1334ZM13.5627 11.6609C13.5627 12.6196 13.5588 13.5783 13.5627 14.537C13.5589 14.7815 13.5804 15.0256 13.6269 15.2656C13.9024 16.5022 14.9088 17.2715 16.2581 17.2778C17.7315 17.2851 19.2056 17.2851 20.6806 17.2778C20.9345 17.2692 21.1835 17.3492 21.385 17.5039C22.3405 18.2145 23.3071 18.9126 24.2673 19.617C24.5084 19.7939 24.7588 19.8518 25.032 19.7125C25.3051 19.5732 25.3857 19.3431 25.3802 19.0543C25.3716 18.6332 25.3732 18.213 25.3802 17.7919C25.3857 17.4484 25.5422 17.2942 25.885 17.2824C26.0799 17.2762 26.2763 17.2824 26.4704 17.2824C28.0576 17.2543 29.1203 16.1743 29.1219 14.584C29.1219 12.6567 29.1219 10.7291 29.1219 8.80124C29.1219 7.15149 28.0591 6.07696 26.4172 6.07539C23.0394 6.07174 19.6614 6.07174 16.2831 6.07539C16.0587 6.06924 15.8342 6.08602 15.6132 6.12548C14.3743 6.38218 13.5784 7.3941 13.5651 8.72846C13.5557 9.70438 13.5627 10.6834 13.5627 11.6609Z" fill="white"/>
<path d="M7.47008 2.61162H11.661C11.7584 2.60807 11.8559 2.61121 11.9529 2.62101C12.0523 2.62738 12.1455 2.67141 12.2135 2.74411C12.2816 2.81682 12.3194 2.91273 12.3192 3.01232C12.3356 3.23458 12.2362 3.3958 12.0202 3.45763C11.9068 3.48486 11.7901 3.49644 11.6735 3.49206C8.8827 3.49206 6.09137 3.49206 3.29952 3.49206C3.18284 3.49628 3.06615 3.48417 2.95282 3.45606C2.85537 3.43438 2.7699 3.37628 2.71388 3.29364C2.65787 3.211 2.63556 3.11008 2.65152 3.01153C2.65412 2.91189 2.69356 2.81674 2.76222 2.74447C2.83087 2.6722 2.92388 2.62794 3.02326 2.62023C3.12055 2.61121 3.21829 2.60807 3.31596 2.61084L7.47008 2.61162Z" fill="white"/>
<path d="M7.46907 4.72077H11.6561C11.7537 4.71723 11.8515 4.72036 11.9488 4.73016C12.0481 4.73653 12.1414 4.78056 12.2094 4.85326C12.2775 4.92597 12.3152 5.02188 12.315 5.12147C12.3315 5.35625 12.2211 5.51982 11.9887 5.5746C11.8739 5.59644 11.7571 5.60536 11.6404 5.60121C8.86839 5.60121 6.09662 5.60121 3.32512 5.60121C2.85555 5.60121 2.6372 5.45252 2.64268 5.14808C2.64816 4.84364 2.85633 4.72077 3.31181 4.72077H7.46907Z" fill="white"/>
<path d="M11.4934 19.3462C10.6748 19.3462 9.85619 19.3462 9.03758 19.3462C8.93069 19.3502 8.82377 19.3394 8.71984 19.3141C8.62681 19.285 8.54642 19.2252 8.49183 19.1444C8.43723 19.0637 8.41166 18.9668 8.41929 18.8696C8.42693 18.7724 8.46732 18.6807 8.53386 18.6095C8.6004 18.5383 8.68915 18.4917 8.78558 18.4775C8.87258 18.4675 8.96023 18.4641 9.04775 18.4673H13.961C14.0486 18.4638 14.1363 18.4677 14.2232 18.4791C14.4447 18.5182 14.5996 18.6708 14.5707 18.8782C14.5495 19.0347 14.4141 19.1866 14.2889 19.3024C14.2271 19.3619 14.0854 19.3454 13.9759 19.3462C13.1479 19.3478 12.3222 19.3462 11.4934 19.3462Z" fill="white"/>
<path d="M5.60064 7.70171C4.83055 7.70171 4.06046 7.70171 3.29036 7.70171C3.18393 7.70171 3.0454 7.7291 2.97732 7.67432C2.84584 7.56945 2.67131 7.41762 2.66427 7.28301C2.65723 7.1484 2.83019 6.99188 2.94288 6.86196C2.97653 6.82283 3.07201 6.82753 3.13932 6.82753C4.78281 6.82753 6.43413 6.82283 8.08075 6.82753C8.40241 6.82753 8.58476 7.01144 8.57771 7.2791C8.57067 7.54675 8.38676 7.70014 8.05493 7.70249C7.23788 7.70406 6.4177 7.70093 5.60064 7.70171Z" fill="white"/>
<path d="M22.9082 8.22993H27.0952C27.1927 8.22612 27.2904 8.23057 27.3871 8.24323C27.4887 8.25898 27.5812 8.31051 27.648 8.38852C27.7149 8.46652 27.7516 8.56586 27.7516 8.66858C27.7516 8.77131 27.7149 8.87065 27.648 8.94865C27.5812 9.02666 27.4887 9.07819 27.3871 9.09394C27.2904 9.10701 27.1928 9.11225 27.0952 9.10959C24.3044 9.10959 21.5131 9.10959 18.7212 9.10959C18.6236 9.11225 18.5259 9.10622 18.4293 9.09159C18.3303 9.08093 18.239 9.0329 18.1742 8.95728C18.1093 8.88166 18.0757 8.78415 18.0803 8.68463C18.0694 8.58053 18.0998 8.47634 18.1649 8.3944C18.2301 8.31247 18.3247 8.25932 18.4285 8.24636C18.5347 8.23067 18.6422 8.22517 18.7494 8.22993H22.9082Z" fill="white"/>
<path d="M22.8791 11.2142H18.7211C18.6236 11.2185 18.5259 11.2146 18.4291 11.2024C18.221 11.1664 18.0676 11.024 18.095 10.8252C18.1161 10.6687 18.2358 10.5035 18.3548 10.3869C18.4213 10.322 18.5771 10.3361 18.6921 10.3361C21.5033 10.3361 24.3142 10.3361 27.1248 10.3361C27.2406 10.3361 27.3932 10.3204 27.4637 10.3838C27.5881 10.4965 27.7243 10.6577 27.7423 10.8119C27.7657 11.0162 27.6131 11.1735 27.3877 11.2032C27.2905 11.213 27.1927 11.2161 27.095 11.2126L22.8791 11.2142Z" fill="white"/>
<path d="M21.1562 13.3233C20.3173 13.3233 19.4791 13.3233 18.6401 13.3233C18.2707 13.3233 18.0735 13.1628 18.0782 12.8795C18.0829 12.5962 18.2887 12.4436 18.6558 12.4436C20.3327 12.4436 22.0098 12.4436 23.6872 12.4436C23.904 12.4436 24.1208 12.4773 24.1936 12.7026C24.2358 12.8326 24.2327 13.0439 24.1544 13.1307C24.0314 13.2468 23.8696 13.3132 23.7005 13.317C22.8529 13.3327 22.0038 13.3233 21.1562 13.3233Z" fill="white"/>
</g>
<defs>
<clipPath id="clip0_393_1772">
<rect width="30" height="26.1417" fill="white"/>
</clipPath>
</defs>
</svg>
