<svg width="30" height="30" viewBox="0 0 30 30" fill="none" xmlns="http://www.w3.org/2000/svg">
<g clip-path="url(#clip0_393_1759)">
<path d="M30 18.75C29.8883 19.1008 29.8188 19.4727 29.6562 19.7977C29.0539 21.0016 28.0617 21.6523 26.718 21.6727C25.0516 21.7024 23.3852 21.6805 21.718 21.6813H21.343C21.4039 21.7977 21.4461 21.8867 21.4992 21.9727C22.3109 23.3836 23.1328 24.7852 23.932 26.2078C24.5906 27.3758 24 28.7586 22.725 29.082C21.8828 29.2953 21.0328 28.9258 20.5656 28.1219C19.7062 26.6469 18.8602 25.1664 18.0078 23.6883C17.6625 23.0883 17.3109 22.4922 16.9742 21.8867C16.9428 21.8174 16.8903 21.7599 16.8242 21.7223C16.7581 21.6846 16.6818 21.6689 16.6063 21.6773C15.5536 21.6852 14.501 21.6852 13.4484 21.6773C13.2648 21.6773 13.1727 21.7438 13.0867 21.8969C12.7195 22.5516 12.3398 23.1992 11.9648 23.85C11.9305 23.9094 11.8984 23.9703 11.8617 24.0273C11.7055 24.2734 11.4586 24.3524 11.2406 24.2289C11.0227 24.1055 10.9594 23.8508 11.1031 23.593C11.4039 23.0578 11.7148 22.5273 12.0203 21.9945C12.0711 21.9047 12.1172 21.8117 12.1844 21.682C11.3852 21.682 10.6281 21.6781 9.87187 21.6891C9.82736 21.6984 9.78536 21.7172 9.7487 21.7442C9.71205 21.7711 9.68159 21.8056 9.65938 21.8453C8.72969 23.4474 7.80469 25.0523 6.88438 26.6602C6.81233 26.7796 6.76471 26.9122 6.74426 27.0502C6.72381 27.1882 6.73094 27.3289 6.76523 27.4641C6.79953 27.5993 6.86031 27.7264 6.94406 27.838C7.02781 27.9495 7.13286 28.0434 7.25312 28.1141C7.76641 28.418 8.4 28.2555 8.72031 27.7148C9.18203 26.9336 9.62812 26.1445 10.0812 25.3594C10.1195 25.2922 10.1594 25.2219 10.2008 25.1586C10.3461 24.95 10.5828 24.8844 10.7867 24.9922C10.8374 25.0177 10.8823 25.0533 10.9188 25.0967C10.9553 25.1401 10.9826 25.1905 10.999 25.2448C11.0154 25.299 11.0207 25.3561 11.0144 25.4125C11.0081 25.4688 10.9905 25.5233 10.9625 25.5727C10.4211 26.5203 9.90703 27.4875 9.30234 28.3938C8.75 29.2188 7.57812 29.3703 6.7375 28.8281C6.32185 28.5613 6.02453 28.145 5.90691 27.6652C5.7893 27.1855 5.86038 26.6789 6.10547 26.25C6.76328 25.0781 7.44609 23.9172 8.11797 22.7516C8.3125 22.4149 8.50859 22.0766 8.72891 21.6844H8.38594C6.76771 21.6844 5.15 21.6844 3.53281 21.6844C1.48438 21.6813 0.059375 20.2523 0.0585938 18.2031C0.0585938 13.5651 0.0585938 8.92709 0.0585938 4.28907C0.0585938 2.56094 1.16641 1.20938 2.82656 0.909381C3.0673 0.871123 3.31098 0.85439 3.55469 0.859381C11.2047 0.859381 18.8549 0.859381 26.5055 0.859381C28.3328 0.859381 29.5828 1.88516 29.9555 3.67735C29.9664 3.70375 29.9814 3.72827 30 3.75001V4.7461C29.9906 4.7461 29.9766 4.7461 29.9727 4.75469C29.832 4.96172 29.6445 5.06719 29.3992 4.97344C29.1539 4.87969 29.1117 4.65626 29.1219 4.41641C29.157 3.61172 28.9125 2.91563 28.3086 2.36719C27.9058 1.99097 27.3819 1.77099 26.8312 1.74688C26.7437 1.74297 26.6555 1.73907 26.568 1.73907C18.8789 1.73907 11.1898 1.73907 3.50078 1.73907C2.42188 1.73907 1.61953 2.20157 1.16641 3.18516C1.02322 3.50476 0.947938 3.85059 0.945312 4.20079C0.93125 8.91745 0.928906 13.6336 0.938281 18.3492C0.938281 19.7508 2.02031 20.8016 3.44922 20.8039C7.23047 20.8096 11.0117 20.8096 14.793 20.8039C18.7206 20.8039 22.6479 20.8039 26.575 20.8039C27.9031 20.8039 28.8805 19.9844 29.093 18.7024C29.1175 18.5188 29.1271 18.3336 29.1219 18.1484C29.1219 14.262 29.1219 10.3758 29.1219 6.48985C29.1219 6.05235 29.35 5.81251 29.6797 5.9211C29.7984 5.96016 29.893 6.07344 29.9984 6.15547L30 18.75ZM17.8906 21.6852C17.9051 21.7316 17.9225 21.777 17.943 21.8211C19.0805 23.7977 20.2141 25.7758 21.3609 27.7469C21.5022 27.9891 21.734 28.1653 22.0052 28.2366C22.2764 28.308 22.5648 28.2687 22.807 28.1273C23.0492 27.986 23.2254 27.7543 23.2968 27.4831C23.3681 27.2119 23.3288 26.9235 23.1875 26.6813C22.268 25.0625 21.3344 23.4524 20.4016 21.8414C20.3633 21.7758 20.2789 21.693 20.2148 21.6922C19.4531 21.6813 18.6844 21.6852 17.8906 21.6852Z" fill="white"/>
<path d="M10.2389 11.6086H16.4405C16.9537 11.6086 17.0834 11.739 17.0772 12.2453C17.0311 15.7367 14.2967 18.8203 10.8334 19.2875C6.87718 19.8195 3.3264 17.2562 2.59125 13.3297C1.85922 9.42341 4.57015 5.52263 8.48812 4.86091C8.88219 4.79982 9.27947 4.76174 9.67797 4.74685C10.0912 4.72731 10.2381 4.88435 10.2381 5.3031C10.2381 7.30362 10.2381 9.3044 10.2381 11.3054L10.2389 11.6086ZM16.1717 12.5C16.0936 12.4953 16.035 12.4898 15.978 12.4898C14.0483 12.4898 12.1186 12.4898 10.1889 12.4968C10.0491 12.5088 9.91799 12.5697 9.81859 12.6687C8.46338 14.0146 7.11234 15.3659 5.76547 16.7226C5.70609 16.782 5.65531 16.8484 5.6014 16.9101C7.24203 18.4172 9.88969 18.9672 12.2069 18.0109C14.8287 16.9297 16.0936 14.4773 16.1717 12.5ZM5.96547 6.89528C2.86234 9.19216 2.55062 13.614 4.93187 16.2445L9.21859 11.9531C8.14828 10.2864 7.0639 8.60049 5.96547 6.89528ZM6.70765 6.42653L9.33968 10.5172V5.64216C8.49281 5.67106 7.4014 5.99372 6.70765 6.42575V6.42653Z" fill="white"/>
<path d="M11.2217 6.75239C11.2217 5.64927 11.2217 4.5464 11.2217 3.4438C11.2217 3.02817 11.3779 2.87739 11.7842 2.8813C15.424 2.91333 18.6084 5.8813 18.8936 9.51021C18.9084 9.70474 18.9295 9.90083 18.9318 10.0946C18.9365 10.4649 18.7756 10.6329 18.4021 10.636C17.6717 10.643 16.9404 10.636 16.21 10.636C14.7584 10.636 13.3071 10.636 11.8561 10.636C11.3365 10.636 11.2178 10.5157 11.2178 10C11.2199 8.91828 11.2212 7.83573 11.2217 6.75239ZM12.1131 9.74146H18.0014C17.9537 6.69458 15.1271 3.87036 12.1131 3.81958V9.74146Z" fill="white"/>
<path d="M27.8407 9.18755C27.8407 9.37271 27.8446 9.55865 27.8407 9.7438C27.8411 9.89522 27.8117 10.0452 27.754 10.1853C27.6964 10.3253 27.6117 10.4526 27.5048 10.5598C27.3979 10.6671 27.2709 10.7522 27.1311 10.8103C26.9913 10.8684 26.8414 10.8984 26.6899 10.8985C26.3196 10.9063 25.9493 10.9047 25.5798 10.8985C25.2734 10.9041 24.9772 10.7881 24.7562 10.5757C24.5352 10.3634 24.4074 10.0721 24.4009 9.76568C24.3829 9.37505 24.3837 8.98443 24.4009 8.5938C24.4062 8.28711 24.5322 7.99488 24.7516 7.78048C24.971 7.56608 25.266 7.4468 25.5728 7.44849C25.9431 7.43911 26.3134 7.43833 26.6829 7.44849C27.3532 7.46802 27.829 7.95708 27.8423 8.62896C27.8439 8.81646 27.8407 9.0024 27.8407 9.18755ZM26.9642 9.17427C26.9642 9.01802 26.9595 8.86177 26.9642 8.70552C26.9728 8.45005 26.8532 8.32505 26.5993 8.32583C26.278 8.32583 25.9574 8.32583 25.6376 8.32583C25.3985 8.32583 25.2751 8.4438 25.2735 8.68208C25.2735 9.01255 25.2696 9.3438 25.2735 9.67505C25.2735 9.89458 25.3829 10.0204 25.6134 10.0196H26.6337C26.8462 10.0196 26.9587 9.91255 26.961 9.69771C26.9649 9.52427 26.9634 9.34927 26.9642 9.17427Z" fill="white"/>
<path d="M27.8406 13.2274C27.8406 13.4031 27.8406 13.5781 27.8406 13.7539C27.8297 14.4461 27.3508 14.9336 26.6687 14.9446C26.3089 14.9503 25.9484 14.9503 25.5875 14.9446C24.9273 14.9352 24.4367 14.4758 24.4039 13.8196C24.3836 13.4201 24.3836 13.0198 24.4039 12.6203C24.4138 12.319 24.5406 12.0333 24.7575 11.8238C24.9743 11.6143 25.2641 11.4973 25.5656 11.4977C25.9258 11.4867 26.2859 11.4899 26.6461 11.4977C27.3492 11.511 27.8313 11.9977 27.8422 12.7024C27.843 12.8758 27.8406 13.0516 27.8406 13.2274ZM26.9641 13.2578C26.9641 13.0828 26.9641 12.9071 26.9641 12.7321C26.9688 12.4867 26.8437 12.375 26.6078 12.3742C26.2773 12.3742 25.9469 12.3742 25.6172 12.3742C25.3922 12.3742 25.2766 12.4985 25.2742 12.7211C25.2742 13.061 25.2688 13.4024 25.2742 13.7422C25.2789 13.9485 25.3891 14.0656 25.6047 14.0656C25.7891 14.0656 25.9734 14.0656 26.1578 14.0656C27.0125 14.075 26.9711 14.1117 26.9641 13.2578Z" fill="white"/>
<path d="M26.1009 18.9906C25.9251 18.9906 25.7501 18.9906 25.5751 18.9906C24.9157 18.9757 24.4313 18.5164 24.4032 17.8554C24.386 17.4648 24.3868 17.0742 24.4032 16.6835C24.429 16.082 24.836 15.6171 25.4321 15.5609C25.8877 15.5191 26.3461 15.5191 26.8017 15.5609C27.4267 15.6171 27.8314 16.0992 27.8415 16.7328C27.8472 17.0937 27.8472 17.4546 27.8415 17.8156C27.8306 18.5046 27.3493 18.982 26.6571 18.9953C26.4704 18.9945 26.2853 18.9914 26.1009 18.9906ZM26.122 18.1125C26.2782 18.1125 26.4345 18.1085 26.5907 18.1125C26.8431 18.121 26.9728 18.0125 26.9681 17.7507C26.9634 17.4296 26.9626 17.1085 26.9681 16.7875C26.9735 16.525 26.8368 16.4171 26.5915 16.4164C26.279 16.4164 25.9665 16.4164 25.6595 16.4164C25.4118 16.4164 25.2767 16.5296 25.2767 16.7859C25.2767 17.107 25.2767 17.4281 25.2767 17.7492C25.2767 18.0039 25.404 18.1226 25.6587 18.1132C25.811 18.1078 25.9665 18.1125 26.122 18.1125Z" fill="white"/>
<path d="M27.8409 5.14373C27.8409 5.32888 27.8448 5.51482 27.8409 5.69998C27.8407 6.00581 27.7192 6.29908 27.503 6.51541C27.2868 6.73174 26.9936 6.85347 26.6878 6.85389C26.3175 6.8617 25.9472 6.86014 25.5776 6.85389C25.2713 6.85828 24.9758 6.74128 24.7554 6.52844C24.5351 6.3156 24.408 6.02421 24.4019 5.71795C24.3839 5.32732 24.3847 4.9367 24.4019 4.54607C24.4078 4.23979 24.5341 3.94816 24.7534 3.73426C24.9727 3.52037 25.2674 3.4014 25.5737 3.4031C25.944 3.39451 26.3144 3.39373 26.6839 3.4031C27.3526 3.42107 27.8276 3.9117 27.8409 4.58513C27.844 4.77263 27.8409 4.95857 27.8409 5.14373ZM26.9644 5.1281C26.9644 4.97185 26.9597 4.8156 26.9644 4.65935C26.973 4.40388 26.855 4.27888 26.5995 4.28045C26.2782 4.28045 25.9576 4.28045 25.6378 4.28045C25.3987 4.28045 25.2761 4.39763 25.2737 4.63592C25.2737 4.96638 25.2698 5.29764 25.2737 5.62889C25.2737 5.84764 25.3831 5.97498 25.6136 5.97498C25.9534 5.97498 26.294 5.97498 26.6339 5.97498C26.8448 5.97498 26.9589 5.86717 26.9612 5.65232C26.9651 5.4781 26.9636 5.3031 26.9644 5.1281Z" fill="white"/>
<path d="M20.9164 17.7055C20.1758 17.7055 19.432 17.7055 18.6945 17.7055C18.3336 17.7055 18.125 17.5359 18.132 17.2594C18.139 16.9828 18.3398 16.8281 18.6844 16.8281C20.1854 16.8281 21.6862 16.8281 23.1867 16.8281C23.5773 16.8281 23.8078 17.1031 23.6883 17.4211C23.6031 17.6484 23.4203 17.707 23.1969 17.7063C22.4367 17.7039 21.6765 17.7055 20.9164 17.7055Z" fill="white"/>
<path d="M21.7693 9.61406C21.2935 9.61406 20.8178 9.61406 20.3412 9.61406C20.0014 9.61406 19.8115 9.44531 19.8185 9.16563C19.8248 8.90078 20.0123 8.73828 20.3357 8.7375C21.2873 8.73333 22.2394 8.73333 23.192 8.7375C23.5225 8.7375 23.7279 8.92188 23.7193 9.19063C23.7107 9.45938 23.5193 9.61172 23.1975 9.61406C22.7217 9.61641 22.2459 9.61406 21.7693 9.61406Z" fill="white"/>
<path d="M22.2209 5.56797C21.8912 5.56797 21.5607 5.57266 21.2303 5.56797C20.9334 5.5625 20.7537 5.39297 20.7529 5.13359C20.7522 4.87422 20.9287 4.69609 21.2264 4.69297C21.8956 4.68568 22.5657 4.68568 23.2365 4.69297C23.5271 4.69297 23.7201 4.88047 23.7217 5.12969C23.7232 5.37891 23.5311 5.56172 23.2412 5.56719C22.9014 5.57266 22.5607 5.56797 22.2209 5.56797Z" fill="white"/>
<path d="M22.4737 13.6594C22.2112 13.6594 21.9494 13.6648 21.6869 13.6594C21.401 13.6516 21.2307 13.4945 21.2182 13.2453C21.208 12.9828 21.3807 12.7922 21.6721 12.7867C22.1963 12.7758 22.7205 12.7766 23.2448 12.7867C23.5323 12.7914 23.7237 12.9852 23.7182 13.2344C23.7127 13.4836 23.526 13.6539 23.2284 13.6602C22.9784 13.6633 22.726 13.6594 22.4737 13.6594Z" fill="white"/>
</g>
<defs>
<clipPath id="clip0_393_1759">
<rect width="30" height="30" fill="white"/>
</clipPath>
</defs>
</svg>
