<svg width="50" height="50" viewBox="0 0 50 50" fill="none" xmlns="http://www.w3.org/2000/svg">
<g clip-path="url(#clip0_392_1662)">
<path d="M47.3759 50H2.54129C2.50513 49.9696 2.46479 49.9446 2.4215 49.9258C0.788684 49.4792 -0.172254 48.1484 0.0256628 46.6211C0.227486 45.0521 1.49962 43.9844 3.18582 43.9701C3.55691 43.9701 3.9267 43.9701 4.32905 43.9701C4.34077 43.7812 4.35769 43.6393 4.35769 43.4961C4.35769 32.7409 4.3603 21.9857 4.36551 11.2305C4.36551 10.9245 4.27957 10.7799 3.9853 10.6628C3.36521 10.4257 2.84314 9.98654 2.5034 9.41621C2.16366 8.84588 2.02609 8.17768 2.1129 7.51953C2.33426 5.95703 3.53738 4.88672 5.12071 4.88281C8.75874 4.8737 12.3955 4.85547 16.0335 4.89844C16.8069 4.90755 17.3616 4.79948 17.665 4.01302C17.7444 3.80469 18.0126 3.5612 18.2171 3.53776C18.3548 3.53095 18.4925 3.55213 18.6219 3.60002C18.7513 3.64792 18.8696 3.72152 18.9697 3.81641C19.2613 4.12109 19.0803 4.47396 18.8837 4.79688C16.997 7.88932 17.4137 11.418 19.971 13.9935C21.517 15.5508 23.0669 17.1042 24.6207 18.6536C24.7301 18.763 24.846 18.8672 24.9723 18.987C26.6884 17.2643 28.372 15.5938 30.0361 13.901C31.8277 12.0781 32.4931 9.88932 32.0699 7.375C31.454 3.72135 27.8251 1.05208 24.1702 1.52344C23.0231 1.66155 21.9227 2.05969 20.9527 2.6875C20.5074 2.97526 20.0738 2.90365 19.8369 2.54167C19.5999 2.17969 19.7066 1.7513 20.1572 1.47005C20.5725 1.21615 20.984 0.932292 21.4371 0.78125C22.3369 0.479167 23.26 0.260417 24.1793 0H25.7418C25.8317 0.0340634 25.924 0.0614808 26.0178 0.0820312C28.9345 0.480469 31.1155 1.97396 32.5699 4.52865C32.734 4.81641 32.9163 4.88672 33.221 4.88542C37.0856 4.87674 40.9506 4.87674 44.816 4.88542C45.5051 4.87827 46.1754 5.1099 46.713 5.54095C47.2506 5.972 47.6224 6.57588 47.7652 7.25C48.0569 8.71224 47.3421 10.1016 45.958 10.6484C45.6025 10.7891 45.5556 10.9805 45.5569 11.2995C45.5569 22.0069 45.5569 32.714 45.5569 43.4206C45.5569 43.5924 45.5725 43.7643 45.5817 43.9714C46.0387 43.9714 46.4436 43.9635 46.8473 43.9714C47.9645 43.9987 48.8629 44.4492 49.4514 45.4167C49.6507 45.7435 49.7587 46.1263 49.9085 46.4844V47.5586C49.6949 47.9844 49.5178 48.4375 49.2574 48.8307C48.816 49.4935 48.1025 49.7695 47.3759 50ZM5.84728 43.9701H34.5843C34.7946 43.9598 35.0054 43.9721 35.2132 44.0065C35.38 44.0421 35.5287 44.136 35.6324 44.2714C35.7361 44.4068 35.7881 44.5748 35.779 44.7452C35.7699 44.9155 35.7003 45.077 35.5827 45.2006C35.4652 45.3242 35.3073 45.4017 35.1376 45.4193C34.9436 45.4347 34.7488 45.439 34.5543 45.4323L3.41759 45.4427C3.20663 45.4363 2.99549 45.4464 2.78608 45.4727C2.41255 45.5246 2.07147 45.713 1.82863 46.0015C1.58578 46.29 1.45837 46.6582 1.47098 47.0352C1.48793 47.4207 1.64696 47.7863 1.91742 48.0616C2.18788 48.3368 2.55064 48.5023 2.93582 48.526C3.08035 48.5365 3.22749 48.526 3.37332 48.526H46.5452C46.7076 48.5315 46.8701 48.5284 47.0322 48.5169C47.376 48.4872 47.7003 48.3445 47.9544 48.111C48.2086 47.8776 48.3783 47.5666 48.4371 47.2266C48.495 46.8848 48.433 46.5336 48.2617 46.2322C48.0904 45.9309 47.8203 45.698 47.497 45.5729C47.2057 45.4773 46.8999 45.4333 46.5934 45.4427C43.859 45.4336 41.135 45.4427 38.4072 45.4362C38.2444 45.4362 38.0817 45.4362 37.9202 45.4258C37.747 45.4198 37.5827 45.3473 37.4615 45.2234C37.3403 45.0995 37.2714 44.9337 37.2692 44.7604C37.247 44.5961 37.2875 44.4295 37.3825 44.2937C37.4776 44.1579 37.6202 44.0628 37.7822 44.0273C37.9558 43.9866 38.1339 43.9687 38.3121 43.974C40.0482 43.974 41.7843 43.974 43.5205 43.974H44.0608V10.9453C44.0061 10.925 43.9493 10.9106 43.8915 10.9023C40.497 10.9023 37.1025 10.9023 33.708 10.888C33.3902 10.888 33.3382 11.0677 33.2718 11.293C32.8748 12.6233 32.1566 13.8356 31.1806 14.8229C30.579 15.4401 29.9501 16.0312 29.3681 16.6654C29.1922 16.8609 29.0872 17.1099 29.0699 17.3724C29.0452 19.1289 29.0608 20.888 29.0543 22.6445C29.0543 23.9375 28.2145 24.7826 26.9189 24.7943C25.6233 24.806 24.3147 24.8047 23.0218 24.7943C21.6962 24.7839 20.8655 23.9453 20.8616 22.6211C20.8616 20.8633 20.8707 19.1055 20.8486 17.3477C20.8323 17.1004 20.7338 16.8657 20.5686 16.681C20.0178 16.0833 19.4293 15.5208 18.8551 14.9453C17.8366 13.9541 17.0862 12.7208 16.6741 11.3607C16.5686 11.0039 16.4137 10.8841 16.04 10.8854C12.8069 10.9023 9.57514 10.8945 6.34337 10.8958C6.18582 10.8958 6.02827 10.9141 5.84728 10.9258V43.9701ZM33.7236 9.40625C33.8225 9.41276 33.9501 9.42839 34.0764 9.42839C37.5816 9.42839 41.0864 9.42839 44.5908 9.42839C44.7692 9.43042 44.9475 9.41604 45.1233 9.38542C45.398 9.34248 45.6545 9.22144 45.8623 9.03675C46.0701 8.85205 46.2203 8.61149 46.2952 8.34375C46.622 7.31641 45.8733 6.35026 44.7431 6.34766C41.0426 6.34071 37.3429 6.34071 33.6442 6.34766C33.5726 6.3514 33.5013 6.35922 33.4306 6.37109C33.5257 7.3776 33.6194 8.36068 33.7236 9.40625ZM16.4905 6.34375H12.9345C10.3225 6.34375 7.71056 6.34375 5.09858 6.34375C4.73596 6.33556 4.38224 6.45658 4.10063 6.68519C3.81902 6.91379 3.62788 7.23508 3.56135 7.59165C3.49483 7.94821 3.55726 8.31681 3.73749 8.63158C3.91773 8.94635 4.20401 9.18678 4.54519 9.3099C4.84094 9.39663 5.14861 9.43575 5.45665 9.42578C8.88026 9.43272 12.3039 9.43272 15.7275 9.42578H16.1936C16.2952 8.36588 16.3915 7.37109 16.4905 6.34375ZM27.5895 18.5586L27.4736 18.5052C26.9866 19.0052 26.5048 19.5091 26.0139 20.0052C24.9866 21.0391 24.9345 21.0378 23.8941 19.9948L22.3316 18.4232C22.3316 19.957 22.3316 21.3529 22.3316 22.7474C22.3316 23.1237 22.5686 23.3216 22.9215 23.3255C24.2843 23.3368 25.6476 23.3368 27.0113 23.3255C27.3408 23.3255 27.5856 23.138 27.5882 22.7891C27.6038 21.3776 27.5895 19.9688 27.5895 18.5586Z" fill="#886CFF"/>
<path d="M21.0557 8.70182C21.0629 7.93083 21.2981 7.17922 21.7317 6.54165C22.1653 5.90409 22.7778 5.40909 23.4922 5.11902C24.2066 4.82895 24.9908 4.75677 25.7461 4.91159C26.5015 5.0664 27.1941 5.44128 27.7367 5.98901C28.2794 6.53673 28.6478 7.23279 28.7956 7.98952C28.9434 8.74625 28.864 9.52979 28.5673 10.2414C28.2706 10.9531 27.7699 11.561 27.1283 11.9887C26.4868 12.4163 25.733 12.6445 24.962 12.6445C24.4465 12.6425 23.9365 12.5388 23.4611 12.3395C22.9857 12.1402 22.5543 11.8491 22.1915 11.483C21.8287 11.1168 21.5417 10.6827 21.3468 10.2055C21.1519 9.72824 21.053 9.21729 21.0557 8.70182ZM27.3995 8.72787C27.3974 8.24528 27.2524 7.77414 26.9827 7.37394C26.713 6.97374 26.3308 6.66245 25.8842 6.47937C25.4377 6.2963 24.947 6.24967 24.474 6.34536C24.001 6.44105 23.5669 6.67478 23.2267 7.01702C22.8865 7.35925 22.6553 7.79465 22.5624 8.26821C22.4694 8.74176 22.519 9.23223 22.7046 9.67767C22.8903 10.1231 23.2039 10.5035 23.6056 10.7708C24.0074 11.0382 24.4794 11.1805 24.962 11.1797C25.61 11.1745 26.2298 10.9136 26.6863 10.4536C27.1428 9.99369 27.3991 9.37201 27.3995 8.72396V8.72787Z" fill="#886CFF"/>
<path d="M29.0576 33.444C29.0576 34.6953 29.0576 35.9479 29.0576 37.1992C29.0498 38.4883 28.2113 39.332 26.9196 39.3411C25.6054 39.3507 24.2911 39.3507 22.9769 39.3411C21.7139 39.3294 20.8675 38.4831 20.8649 37.2252C20.8588 34.6732 20.8588 32.1211 20.8649 29.569C20.8649 28.3971 21.6462 27.5325 22.8063 27.4857C24.2386 27.4375 25.6618 27.4401 27.0889 27.4857C28.2777 27.5208 29.0498 28.3841 29.0563 29.5872C29.0628 30.8763 29.0576 32.1614 29.0576 33.444ZM22.3284 32.5989C22.3284 34.2109 22.3167 35.7825 22.3363 37.3542C22.3363 37.7578 22.6592 37.875 23.0238 37.875C24.305 37.875 25.585 37.875 26.8649 37.875C27.4066 37.875 27.5902 37.6823 27.5941 37.138C27.5941 36.2773 27.5941 35.4167 27.5941 34.556V32.6029L22.3284 32.5989ZM27.5941 31.0846C27.5941 30.5364 27.5941 30.0495 27.5941 29.5638C27.5941 29.164 27.3714 28.9492 26.9925 28.9466C25.6292 28.9349 24.2659 28.9258 22.904 28.9635C22.7113 28.9635 22.3831 29.2239 22.3623 29.3945C22.2933 29.9466 22.3363 30.5117 22.3363 31.0872L27.5941 31.0846Z" fill="#886CFF"/>
<path d="M16.4141 18.8802C16.4141 20.1159 16.4141 21.3542 16.4141 22.586C16.4062 23.9831 15.5911 24.7995 14.2005 24.7995C12.9366 24.7995 11.6714 24.7995 10.4049 24.7995C9.0612 24.7995 8.21615 23.9557 8.21224 22.6068C8.2053 20.1198 8.2053 17.6328 8.21224 15.1459C8.21224 13.7891 9.03255 12.9518 10.3867 12.9323C11.668 12.9167 12.9497 12.9167 14.2318 12.9323C15.6016 12.9466 16.4036 13.7591 16.4128 15.1263C16.4206 16.3724 16.4141 17.6237 16.4141 18.8802ZM9.67839 18.0599C9.67839 19.6654 9.66406 21.2227 9.6875 22.78C9.6875 23.1992 10.0156 23.3321 10.4062 23.3294C11.6732 23.3294 12.9388 23.3294 14.2044 23.3294C14.7747 23.3294 14.9453 23.1498 14.9505 22.5612C14.9505 21.7487 14.9505 20.9349 14.9505 20.1224V18.0599H9.67839ZM14.9362 16.5365C14.9362 15.9623 14.9753 15.4102 14.9141 14.8698C14.8945 14.6966 14.6146 14.4232 14.4479 14.4193C13.0208 14.3854 11.5933 14.3854 10.1654 14.4193C10.0013 14.4193 9.72526 14.7071 9.70573 14.8841C9.64453 15.4219 9.68359 15.9714 9.68359 16.5313L14.9362 16.5365Z" fill="#886CFF"/>
<path d="M33.5037 18.8424C33.5037 17.6081 33.5037 16.3685 33.5037 15.1367C33.5115 13.7396 34.3136 12.9362 35.7172 12.9232C36.9664 12.9127 38.2155 12.9127 39.4646 12.9232C40.8826 12.9336 41.7029 13.7565 41.7055 15.1679C41.7107 17.6376 41.7107 20.1081 41.7055 22.5794C41.7055 23.9544 40.8579 24.7864 39.4803 24.7929C38.2303 24.7929 36.9811 24.7929 35.7329 24.7929C34.3149 24.7929 33.5089 23.9818 33.5037 22.5508C33.4998 21.3138 33.5037 20.0781 33.5037 18.8424ZM40.2459 18.0612H34.9763C34.9763 19.6653 34.9646 21.2383 34.9855 22.8099C34.9855 23.2187 35.3149 23.3307 35.6769 23.3242C36.9594 23.3242 38.242 23.3242 39.5232 23.3242C40.0441 23.3242 40.2381 23.1198 40.2446 22.5703C40.2524 21.9518 40.2446 21.3346 40.2446 20.7161L40.2459 18.0612ZM40.2342 16.5364C40.2342 15.9739 40.2563 15.4414 40.225 14.9114C40.2055 14.5703 39.9555 14.3906 39.6235 14.3906C38.2771 14.3828 36.9295 14.3711 35.587 14.4049C35.3865 14.4049 35.0415 14.6445 35.0219 14.8034C34.9529 15.3711 34.9946 15.9518 34.9946 16.5338L40.2342 16.5364Z" fill="#886CFF"/>
<path d="M16.4144 33.4492C16.4144 34.6849 16.4144 35.9232 16.4144 37.1562C16.404 38.5195 15.5837 39.3359 14.2256 39.3424C12.9443 39.3476 11.6627 39.3476 10.3805 39.3424C9.06673 39.3359 8.21908 38.4909 8.21387 37.1719C8.20605 34.6693 8.20605 32.1662 8.21387 29.6627C8.21387 28.3346 9.0446 27.4935 10.3649 27.4791C11.667 27.4644 12.9652 27.4644 14.2594 27.4791C15.5954 27.4935 16.404 28.3086 16.4144 29.6484C16.4222 30.914 16.4144 32.1823 16.4144 33.4492ZM9.72819 32.6068C9.70483 32.6591 9.6882 32.7143 9.67871 32.7708C9.67871 34.2513 9.66569 35.7318 9.67871 37.2122C9.67871 37.6927 9.90527 37.875 10.4404 37.8763C11.6904 37.8815 12.9404 37.8815 14.1904 37.8763C14.7699 37.8763 14.9495 37.6992 14.9521 37.1211C14.9521 35.7396 14.9521 34.3554 14.9521 32.9726C14.9455 32.85 14.9316 32.7278 14.9105 32.6068H9.72819ZM14.9469 31.0846C14.9469 30.5234 14.9469 30.0221 14.9469 29.5221C14.9469 29.1432 14.7113 28.9505 14.3571 28.9479C12.9951 28.9375 11.6318 28.9245 10.2712 28.9661C10.0719 28.9661 9.73991 29.25 9.71256 29.4375C9.63574 29.97 9.68522 30.5221 9.68522 31.0859L14.9469 31.0846Z" fill="#886CFF"/>
<path d="M33.5039 33.4154C33.5039 32.1641 33.4974 30.9115 33.5039 29.6602C33.513 28.2943 34.3229 27.4857 35.6927 27.4766C36.9739 27.4661 38.2556 27.4661 39.5377 27.4766C40.8606 27.4896 41.6992 28.3268 41.7031 29.6471C41.7118 32.1497 41.7118 34.6528 41.7031 37.1562C41.7031 38.5 40.8515 39.3372 39.5026 39.3424C38.2369 39.3477 36.9713 39.3477 35.7057 39.3424C34.3203 39.3424 33.5104 38.5221 33.5026 37.1211C33.4987 35.8854 33.5039 34.651 33.5039 33.4154ZM40.2461 32.6081H34.9765C34.9765 34.2135 34.9648 35.7878 34.9843 37.3607C34.9843 37.7708 35.3151 37.8815 35.6757 37.8815C36.9596 37.8815 38.2421 37.8815 39.5247 37.8815C40.0338 37.8815 40.2343 37.6771 40.2435 37.1719C40.2539 36.5378 40.2435 35.9036 40.2435 35.2695L40.2461 32.6081ZM34.9778 31.0612H40.2448C40.2448 30.5273 40.2539 30.0404 40.2448 29.5534C40.2356 29.1927 40.0377 28.9544 39.6757 28.9505C38.2981 28.9358 36.9201 28.9358 35.5416 28.9505C35.2369 28.9505 34.9974 29.1146 34.9869 29.4492C34.9635 29.9805 34.9778 30.5143 34.9778 31.0612Z" fill="#886CFF"/>
</g>
<defs>
<clipPath id="clip0_392_1662">
<rect width="49.9102" height="50" fill="white"/>
</clipPath>
</defs>
</svg>
