<svg width="47" height="50" viewBox="0 0 47 50" fill="none" xmlns="http://www.w3.org/2000/svg">
<g clip-path="url(#clip0_392_1644)">
<path d="M43.6643 50H26.2948C25.9423 49.7396 25.8474 49.3763 25.8487 48.9427C25.8589 46.013 25.8487 43.0833 25.8564 40.1549C25.8492 39.9764 25.8682 39.7978 25.9128 39.625C25.9621 39.4799 26.0561 39.3548 26.1809 39.2683C26.3058 39.1817 26.4547 39.1384 26.6057 39.1447C26.7568 39.151 26.9017 39.2066 27.0192 39.3032C27.1366 39.3998 27.2203 39.5323 27.2577 39.681C27.2898 39.8736 27.3015 40.0692 27.2923 40.2643C27.2923 42.819 27.2923 45.3737 27.2923 47.9284V48.5013H42.6694V30.1003H27.2936V30.6523C27.2936 32.6211 27.2936 34.5898 27.2936 36.5586C27.3012 36.7375 27.2913 36.9168 27.2641 37.0938C27.1923 37.4635 26.9205 37.7057 26.5884 37.6445C26.3384 37.599 26.0897 37.3555 25.9179 37.138C25.8179 37.0078 25.8577 36.763 25.8577 36.569C25.8577 34.6003 25.8577 32.6311 25.8577 30.6615V30.1029H10.069V30.707C10.069 36.793 10.0715 42.8789 10.0767 48.9648C10.0767 49.4102 9.96897 49.7565 9.59589 50H5.66122C5.2766 49.7669 5.17147 49.4219 5.17275 48.974C5.18386 42.8385 5.18643 36.7031 5.18044 30.5677V30.0195C5.083 29.9792 5.03941 29.9583 4.99454 29.9427C3.32016 29.3333 2.36245 27.832 2.62784 26.2279C2.92015 24.4557 4.26504 23.3464 6.12276 23.3437H8.07664C7.88433 22.4857 8.0292 21.7552 8.61639 21.1445C9.20358 20.5339 9.96384 20.4753 10.7318 20.5143V19.8307C9.76384 19.8307 8.82408 19.849 7.88433 19.8307C5.56506 19.7773 3.53939 18.1315 3.28042 15.7943C3.06887 13.8984 3.18298 11.9635 3.17913 10.0443C3.17566 9.96111 3.18995 9.87817 3.22102 9.80115C3.2521 9.72412 3.29921 9.65485 3.35914 9.59807C3.41907 9.54128 3.49039 9.49835 3.5682 9.47221C3.64601 9.44606 3.72846 9.43733 3.80991 9.44661C4.06632 9.47656 4.33043 9.69141 4.51889 9.89323C4.62274 10.0065 4.5971 10.263 4.5971 10.4544C4.5971 11.9518 4.58813 13.4492 4.60479 14.9466C4.62659 16.8451 6.05481 18.3516 7.90997 18.3594C13.1716 18.3802 18.4332 18.3802 23.6948 18.3594C24.5639 18.3556 25.3963 18.0031 26.0106 17.3787C26.6249 16.7544 26.9713 15.9087 26.9743 15.026C27.0008 11.625 27.0008 8.22396 26.9743 4.82292C26.9693 3.93248 26.6172 3.0803 25.9952 2.45273C25.3732 1.82516 24.5318 1.47325 23.6551 1.47396C18.4088 1.4566 13.163 1.4566 7.91766 1.47396C7.0414 1.48176 6.20314 1.83849 5.58314 2.46743C4.96315 3.09638 4.61093 3.9473 4.60223 4.83724C4.58813 5.58464 4.60223 6.33333 4.60223 7.08203C4.59454 7.61849 4.32146 7.9349 3.88683 7.9388C3.45221 7.94271 3.17144 7.63542 3.16631 7.09896C3.16631 6.33333 3.15093 5.56771 3.16631 4.80339C3.20477 3.22526 3.82914 1.90625 5.10224 1.01432C5.75224 0.558594 6.55738 0.330729 7.29329 0H24.2794C24.3038 0.0208333 24.3243 0.0533854 24.3512 0.0598958C27.0795 0.738281 28.4231 2.47396 28.4231 5.33854C28.4231 8.43099 28.4295 11.5234 28.4231 14.6146C28.4321 15.1346 28.38 15.6539 28.2679 16.1615C28.0152 17.1951 27.4336 18.1151 26.6135 18.7788C25.7934 19.4425 24.7805 19.8127 23.732 19.832C22.7781 19.8542 21.823 19.832 20.8653 19.832V20.5286C21.6704 20.4661 22.4038 20.5534 22.982 21.1549C23.5602 21.7565 23.7089 22.4961 23.5281 23.3112H24.9871C24.9871 22.4141 24.9782 21.5482 25.5346 20.8099C25.7915 20.4551 26.1252 20.1649 26.51 19.9618C26.8947 19.7586 27.3203 19.6478 27.7538 19.638C28.6218 19.5938 29.4449 19.7044 30.1449 20.2982C31.0757 21.0872 31.2206 22.1615 31.1539 23.306H32.918C32.7065 21.2448 32.5013 19.2227 32.2936 17.2018C32.2283 16.5755 32.5026 16.2461 33.1231 16.2253C33.4039 16.2161 33.686 16.2253 33.968 16.2253L34.036 16.1068C33.8886 15.9916 33.7474 15.8686 33.6129 15.7383C32.6451 14.6962 32.0139 13.3788 31.8035 11.9624C31.5932 10.546 31.8138 9.09808 32.436 7.8125C32.7642 7.14062 33.0103 7.03125 33.6937 7.26693C34.9733 7.70777 36.1008 8.5138 36.9411 9.58854C37.0147 9.46984 37.0943 9.35511 37.1796 9.24479C37.9791 8.32767 39.0037 7.64208 40.1489 7.25781C40.813 7.03125 41.0566 7.13802 41.3758 7.77865C42.0135 9.07523 42.2411 10.5403 42.0274 11.9732C41.8137 13.4062 41.1693 14.7371 40.1822 15.7839C40.0681 15.9049 39.9579 16.0299 39.7848 16.2214C40.1694 16.2214 40.454 16.2109 40.7386 16.2214C41.3117 16.2448 41.5822 16.543 41.5451 17.1328C41.5156 17.5872 41.454 18.0443 41.4079 18.4922C41.2451 20.0898 41.0822 21.6875 40.9143 23.3437C41.8015 23.3437 42.6464 23.3294 43.4887 23.3437C45.1105 23.375 46.4195 24.5586 46.6938 26.224C46.9426 27.7214 46.0426 29.2786 44.6002 29.8437C44.4528 29.901 44.3054 29.9531 44.1425 30.0143V30.612C44.1425 36.7309 44.1451 42.8507 44.1502 48.9714C44.1541 49.4206 44.0477 49.7656 43.6643 50ZM24.6589 24.8086H6.66636C6.37789 24.8086 6.08943 24.7969 5.80225 24.8086C5.50127 24.823 5.20827 24.9115 4.94849 25.0665C4.68871 25.2216 4.46996 25.4384 4.3111 25.6985C4.15224 25.9585 4.05803 26.2538 4.03661 26.5591C4.01518 26.8643 4.06718 27.1702 4.18812 27.4505C4.55607 28.293 5.23942 28.6094 6.12148 28.6094C18.4806 28.6042 30.8406 28.6042 43.2015 28.6094C43.3298 28.6125 43.4582 28.609 43.5861 28.599C43.8864 28.5723 44.1758 28.472 44.4295 28.3066C44.6831 28.1413 44.8935 27.9158 45.0424 27.6497C45.1913 27.3836 45.2744 27.0847 45.2845 26.7787C45.2946 26.4727 45.2313 26.1689 45.1002 25.8932C44.731 25.1276 44.0951 24.806 43.2682 24.806C37.0672 24.8103 30.8641 24.8112 24.6589 24.8086ZM8.59716 48.5065V30.099H6.64328V48.5104L8.59716 48.5065ZM40.0412 17.7318H33.795C33.9885 19.6159 34.1796 21.4544 34.3693 23.3164H39.4668C39.6578 21.4635 39.8476 19.6107 40.0412 17.7318ZM40.2373 8.83984C37.3245 9.86328 36.0886 13.7383 37.3488 16.0013C40.0553 14.9336 41.463 11.4414 40.2373 8.83984ZM10.4241 21.9805C10.2807 21.971 10.1368 21.9767 9.99461 21.9974C9.6382 22.0742 9.42153 22.3125 9.43435 22.6823C9.43209 22.8479 9.4928 23.008 9.60385 23.1293C9.7149 23.2505 9.86773 23.3236 10.0305 23.3333C10.1742 23.3461 10.3185 23.3492 10.4626 23.3424H21.1537C21.2975 23.3514 21.4417 23.3467 21.5845 23.3281C21.7356 23.3043 21.874 23.2281 21.976 23.1123C22.078 22.9966 22.1374 22.8486 22.144 22.6934C22.1507 22.5382 22.1042 22.3855 22.0125 22.2612C21.9207 22.1369 21.7894 22.0488 21.6409 22.0117C21.4844 21.9801 21.3244 21.97 21.1653 21.9818M33.6296 8.80729C32.509 10.8711 33.5347 14.3802 35.595 15.4779C35.2723 14.0043 35.4163 12.4649 36.0065 11.0794C36.0237 11.0134 36.0269 10.9445 36.0158 10.8771C36.0048 10.8098 35.9797 10.7456 35.9424 10.6888C35.3687 9.84594 34.5647 9.19192 33.6296 8.80729ZM29.6923 23.3164C29.7436 22.5521 29.8205 21.7839 29.0795 21.3385C28.7769 21.15 28.4288 21.0501 28.0737 21.0501C27.7187 21.0501 27.3706 21.15 27.0679 21.3385C26.3205 21.7852 26.4089 22.556 26.4615 23.3164H29.6923ZM19.3691 19.8776H12.2293V20.4779H19.3691V19.8776Z" fill="#4F77FF"/>
<path d="M35.0298 39.9335C36.5798 39.9335 38.1311 39.9335 39.6811 39.9335C40.7363 39.9335 41.2658 40.4804 41.2671 41.5585C41.2671 42.8754 41.2671 44.1926 41.2671 45.5104C41.2671 46.4817 40.6991 47.0729 39.7517 47.0729C36.5892 47.0729 33.4242 47.0729 30.2567 47.0729C29.3464 47.0729 28.763 46.5338 28.7438 45.6119C28.7156 44.1979 28.7156 42.7829 28.7438 41.3671C28.7643 40.4661 29.34 39.944 30.2323 39.9348C31.8323 39.9296 33.4311 39.9335 35.0298 39.9335ZM30.2028 45.5729H39.7952V41.4205H30.2028V45.5729Z" fill="#4F77FF"/>
<path d="M35.0228 31.5391C36.5724 31.5391 38.1228 31.5391 39.6741 31.5391C40.7267 31.5391 41.2665 32.0911 41.2677 33.1602C41.2677 34.4622 41.2677 35.7643 41.2677 37.0664C41.2677 38.1081 40.7203 38.6745 39.7113 38.6758C36.5625 38.6758 33.4138 38.6758 30.265 38.6758C29.3291 38.6758 28.7573 38.1328 28.7419 37.1771C28.7188 35.7943 28.7188 34.4119 28.7419 33.0299C28.7599 32.0742 29.3265 31.5456 30.2804 31.543C31.8573 31.5352 33.4407 31.5391 35.0228 31.5391ZM39.8087 33.0417H30.1996V37.1836H39.8087V33.0417Z" fill="#4F77FF"/>
<path d="M15.7699 16.9062C13.2605 16.9062 10.7506 16.9062 8.24031 16.9062C6.78517 16.9062 6.03516 16.1354 6.03516 14.6471C6.03516 11.4753 6.03516 8.30338 6.03516 5.13151C6.03516 3.72005 6.81465 2.93099 8.20442 2.92969C13.2558 2.92969 18.3076 2.92969 23.3598 2.92969C24.77 2.92969 25.5393 3.71094 25.5393 5.16797C25.5393 8.33984 25.5393 11.5117 25.5393 14.6836C25.5393 16.1328 24.77 16.8971 23.3469 16.9062C20.8238 16.9089 18.2981 16.9089 15.7699 16.9062ZM15.8071 4.39453H8.2775C7.59928 4.39453 7.47748 4.52474 7.47748 5.22526V14.6484C7.47748 15.3177 7.60569 15.4414 8.26339 15.4414H23.3341C23.9969 15.4414 24.1034 15.3229 24.1034 14.638C24.1034 11.4974 24.1034 8.35634 24.1034 5.21484C24.1034 4.51302 23.9854 4.39453 23.2944 4.39453H15.8071Z" fill="#4F77FF"/>
<path d="M36.8684 43.5013C36.8701 44.0019 36.6771 44.4829 36.3313 44.8396C35.9856 45.1964 35.5151 45.4 35.0222 45.4062C34.5248 45.4052 34.0481 45.2035 33.697 44.8455C33.346 44.4875 33.1494 44.0026 33.1504 43.4974C33.1514 42.9921 33.35 42.508 33.7025 42.1515C34.055 41.795 34.5325 41.5953 35.0299 41.5963C35.2739 41.5985 35.515 41.6496 35.7395 41.7466C35.964 41.8435 36.1674 41.9845 36.3382 42.1615C36.509 42.3384 36.6437 42.5479 36.7347 42.7777C36.8257 43.0076 36.8711 43.2535 36.8684 43.5013ZM35.0081 42.8828C34.803 43.1627 34.5684 43.3502 34.5966 43.4791C34.635 43.6549 34.8722 43.7864 35.0248 43.9375C35.153 43.7877 35.3825 43.6458 35.3979 43.4856C35.4132 43.3255 35.2004 43.164 35.0081 42.8828Z" fill="#4F77FF"/>
<path d="M36.8676 35.1133C36.8685 35.3652 36.8199 35.6148 36.7246 35.8474C36.6293 36.08 36.4892 36.2909 36.3126 36.4679C36.136 36.6448 35.9264 36.7841 35.6961 36.8778C35.4658 36.9714 35.2194 37.0173 34.9714 37.013C34.474 37.0051 34 36.7968 33.6537 36.4339C33.3075 36.071 33.1174 35.5833 33.1252 35.0781C33.1331 34.5729 33.3382 34.0915 33.6955 33.7399C34.0527 33.3883 34.5329 33.1952 35.0304 33.2031C35.5233 33.2093 35.9937 33.4139 36.3382 33.7721C36.6826 34.1303 36.8731 34.6126 36.8676 35.1133ZM35.0163 35.7213C35.2047 35.4401 35.4124 35.2656 35.4009 35.1133C35.3894 34.9609 35.156 34.8177 35.0163 34.6706C34.8676 34.8229 34.6317 34.9583 34.597 35.1328C34.5714 35.2643 34.8086 35.4466 35.0163 35.7213Z" fill="#4F77FF"/>
</g>
<defs>
<clipPath id="clip0_392_1644">
<rect width="46.7391" height="50" fill="white"/>
</clipPath>
</defs>
</svg>
