<svg width="50" height="50" viewBox="0 0 50 50" fill="none" xmlns="http://www.w3.org/2000/svg">
<g clip-path="url(#clip0_392_1654)">
<path d="M0.489938 50C0.0784801 49.7292 -0.0465199 49.3867 0.061553 48.8789C0.95348 44.6328 1.82327 40.3828 2.69437 36.1328C2.7139 36.0404 2.71911 35.944 2.73473 35.8112C2.49645 35.7735 2.27509 35.7539 2.06025 35.7018C1.47672 35.5656 0.956348 35.2362 0.583603 34.767C0.210858 34.2978 0.00761652 33.7164 0.00686553 33.1172C0.00252525 26.3169 0.00295928 19.5143 0.00816761 12.7097C0.0135576 12.0422 0.280194 11.4035 0.750925 10.9303C1.22166 10.4572 1.85902 10.1872 2.5264 10.1784C3.18413 10.1789 3.8165 10.4322 4.29272 10.8859C4.76895 11.3396 5.05259 11.959 5.08499 12.6159C5.12536 13.362 5.10322 14.112 5.10322 14.8607C5.10322 19.2062 5.10322 23.5512 5.10322 27.8959C5.10322 29.2331 5.88447 30.2552 7.05634 30.3581C7.79463 30.4245 8.54463 30.3711 9.35452 30.3711C9.35452 29.5378 9.37275 28.7136 9.33369 27.8906C9.33369 27.7735 9.06416 27.6302 8.89358 27.5638C7.46129 27.0065 6.59671 25.9714 6.45348 24.4388C6.30634 22.8646 6.97431 21.6263 8.36494 20.8893C8.9259 20.6021 9.54595 20.4492 10.1761 20.4427C20.0355 20.4167 29.8944 20.4119 39.753 20.4284C40.6489 20.4136 41.5193 20.7269 42.2004 21.3091C42.8814 21.8914 43.3262 22.7025 43.4509 23.5899C43.7113 25.3386 42.6553 27.0117 40.8975 27.5938C40.6371 27.681 40.5381 27.7813 40.5446 28.0599C40.5642 28.8203 40.5511 29.5821 40.5511 30.3568C41.391 30.3568 42.1892 30.4258 42.9704 30.3386C43.8819 30.2357 44.6084 29.4206 44.7491 28.5039C44.7857 28.2452 44.8027 27.984 44.7998 27.7227C44.7998 24.484 44.7998 21.2457 44.7998 18.0078C44.7998 17.8294 44.7477 17.6029 44.835 17.487C44.9977 17.2591 45.2165 16.9974 45.4639 16.9219C45.805 16.8164 46.0915 17.043 46.2009 17.3972C46.2462 17.57 46.2655 17.7486 46.2582 17.9271C46.2582 21.2309 46.2582 24.5343 46.2582 27.8373C46.2582 30.3008 44.6957 31.8503 42.2347 31.862C41.6879 31.862 41.141 31.862 40.5707 31.862V34.2813C40.7438 34.2917 40.9001 34.3099 41.0563 34.3099C43.006 34.3099 44.9548 34.3099 46.9027 34.3099C48.016 34.3099 48.4379 33.8854 48.4379 32.78C48.4379 26.2053 48.4379 19.6311 48.4379 13.0573C48.4418 12.9271 48.4392 12.7967 48.43 12.6667C48.4074 12.3966 48.287 12.1442 48.0913 11.9567C47.8957 11.7692 47.6383 11.6596 47.3675 11.6485C47.0956 11.6472 46.8332 11.7485 46.6326 11.9322C46.4321 12.1158 46.3081 12.3683 46.2855 12.6393C46.2438 13.2709 46.2647 13.9076 46.2582 14.5417C46.2582 14.8854 46.1735 15.1927 45.8324 15.3529C45.7273 15.4081 45.6097 15.4355 45.491 15.4324C45.3723 15.4292 45.2564 15.3957 45.1544 15.3349C45.0523 15.2742 44.9676 15.1883 44.9083 15.0854C44.8489 14.9825 44.817 14.8662 44.8155 14.7474C44.7727 13.9512 44.7827 13.153 44.8454 12.3581C44.9561 11.2344 45.9313 10.3464 47.1006 10.1953C48.1631 10.0651 49.2686 10.7318 49.7048 11.7787C49.7647 11.9232 49.835 12.0651 49.8988 12.2084V33.5938C49.8389 33.7409 49.7777 33.888 49.7191 34.0365C49.3467 34.9701 48.6605 35.5261 47.6866 35.7292C47.5212 35.7643 47.3506 35.7722 47.1657 35.7956C47.1826 35.9258 47.1852 36.0117 47.2009 36.0886C47.8484 39.2335 48.4964 42.3772 49.1449 45.5195C49.3819 46.6563 49.6501 47.7865 49.904 48.9206V50H46.5902C46.4131 49.7201 46.1918 49.4583 46.0694 49.1563C44.6431 45.7952 43.2269 42.4306 41.8207 39.0625C41.4274 38.1268 41.0342 37.1919 40.641 36.2578L40.5511 36.2748V36.7865C40.5511 40.849 40.5511 44.9128 40.5589 48.9753C40.5589 49.4245 40.4522 49.7669 40.0602 49.9987H35.6774C35.2868 49.763 35.1722 49.4219 35.1813 48.974C35.2061 47.8021 35.1905 46.6367 35.1905 45.4688V42.4245C35.0617 42.5492 34.9636 42.7021 34.904 42.8711C34.0147 44.9922 33.1332 47.1172 32.2282 49.2318C32.1071 49.5143 31.8662 49.7448 31.6813 50H28.8519C28.473 49.6966 28.3754 49.3203 28.4756 48.8412C29.055 46.1068 29.6162 43.3724 30.1813 40.638C30.5225 38.9887 30.861 37.3342 31.197 35.6745C31.1227 35.6263 31.0668 35.5899 31.0173 35.5599C30.9678 35.53 30.8688 35.4935 30.7985 35.4518C29.7946 34.8568 29.3037 33.9766 29.4235 32.8086C29.5394 31.6784 30.1787 30.9245 31.2464 30.5638C31.6028 30.4566 31.9732 30.403 32.3454 30.405C33.2803 30.3841 34.2165 30.3985 35.1514 30.3985V27.7943H14.7556V30.3985C15.7803 30.3985 16.7699 30.3867 17.7595 30.3985C19.0824 30.4193 20.1553 31.2565 20.4431 32.4662C20.7399 33.7136 20.1501 34.9167 18.9353 35.5404C18.8662 35.5755 18.805 35.6159 18.7243 35.6563C18.726 35.7255 18.7317 35.7947 18.7412 35.8633C19.6301 40.1732 20.5229 44.4831 21.4196 48.793C21.5225 49.2852 21.4535 49.6823 21.055 50H18.2295C18.0511 49.7591 17.8207 49.5417 17.7087 49.2735C17.0212 47.6836 16.3597 46.0807 15.6892 44.4831C15.3975 43.7887 15.1045 43.0942 14.8102 42.3998L14.7243 42.418V42.8828C14.7243 44.9115 14.7139 46.9414 14.7321 48.9688C14.7321 49.4167 14.6214 49.7591 14.2373 49.9948H9.84671C9.68395 49.7669 9.39358 49.5456 9.38187 49.3112C9.32978 48.3047 9.3415 47.293 9.37015 46.2852C9.38186 45.8685 9.68395 45.6341 10.0863 45.6341C10.2607 45.6262 10.4315 45.6854 10.5637 45.7994C10.6959 45.9134 10.7795 46.0737 10.7972 46.2474C10.8221 46.4574 10.8286 46.6691 10.8168 46.8802C10.8168 47.4258 10.8168 47.9701 10.8168 48.5039H13.2295V27.7956H10.8168V43.0143C10.8292 43.1929 10.8227 43.3723 10.7972 43.5495C10.7087 43.9466 10.4561 44.1758 10.0342 44.1498C9.64358 44.1237 9.41963 43.8828 9.36364 43.4987C9.35061 43.3528 9.348 43.2062 9.35582 43.0599C9.35582 40.9271 9.35582 38.7947 9.35582 36.6628C9.35582 36.5326 9.3415 36.4024 9.32848 36.1511C9.21129 36.4024 9.14619 36.5313 9.0902 36.6641C7.35409 40.7986 5.61798 44.9323 3.88187 49.0651C3.74254 49.3972 3.50556 49.6888 3.31416 49.9987L0.489938 50ZM24.9548 26.2943H38.4964C39.0004 26.2943 39.5043 26.3099 40.0069 26.2774C40.3236 26.2528 40.6311 26.1593 40.9079 26.0034C41.1847 25.8475 41.4241 25.6329 41.6093 25.3748C41.7945 25.1167 41.921 24.8212 41.98 24.5091C42.039 24.1969 42.0291 23.8756 41.9509 23.5677C41.6683 22.4909 40.822 21.8919 39.5694 21.8919H10.3337C10.2035 21.8919 10.0733 21.8919 9.94306 21.8998C9.59731 21.9246 9.26222 22.0303 8.9648 22.2084C8.66738 22.3865 8.41594 22.6319 8.23073 22.9249C8.04552 23.2179 7.93171 23.5504 7.89848 23.8954C7.86525 24.2405 7.91353 24.5885 8.03942 24.9115C8.40009 25.8229 9.18004 26.2956 10.335 26.2969C15.2083 26.3004 20.0815 26.2995 24.9548 26.2943ZM9.3402 31.8607C8.7777 31.8607 8.26207 31.8698 7.74645 31.8607C7.37363 31.8675 7.00097 31.84 6.63317 31.7787C4.79072 31.3802 3.64619 29.8854 3.64619 27.8646C3.64098 22.9844 3.64098 18.1051 3.64619 13.2266C3.65252 13.0153 3.64382 12.8038 3.62015 12.5938C3.58367 12.3338 3.45577 12.0954 3.25939 11.9212C3.063 11.747 2.81099 11.6484 2.54853 11.6432C2.27784 11.6513 2.01945 11.7581 1.82206 11.9435C1.62467 12.1289 1.50191 12.3801 1.47692 12.6498C1.46774 12.7798 1.46513 12.9101 1.46911 13.0404V32.8125C1.46911 33.8815 1.90009 34.3125 2.98082 34.3151C4.94437 34.3151 6.90834 34.3151 8.87275 34.3151C9.0277 34.3151 9.18134 34.2956 9.34541 34.2839L9.3402 31.8607ZM36.6839 27.7826V48.5H39.0629V27.7826H36.6839ZM48.2725 48.5C48.1006 47.6654 47.9352 46.8568 47.7686 46.0469C47.0889 42.7578 46.4075 39.4688 45.7243 36.1797C45.6931 36.0352 45.5589 35.7982 45.4639 35.7969C44.3519 35.7696 43.2399 35.78 42.0537 35.78C42.1436 36.0156 42.1996 36.1784 42.266 36.3373C43.8771 40.1827 45.4882 44.0274 47.0993 47.8711C47.3962 48.5755 47.3962 48.5755 48.2673 48.5H48.2725ZM7.87535 35.7748C6.73864 35.7748 5.70478 35.7852 4.67223 35.7682C4.35062 35.7682 4.23343 35.8672 4.16832 36.1901C3.57067 39.1654 2.95088 42.1354 2.34411 45.1068L1.64879 48.4831C2.50036 48.6133 2.50036 48.6133 2.79853 47.9024C3.87753 45.3312 4.95739 42.7587 6.03812 40.1849C6.63187 38.7513 7.23082 37.3164 7.87535 35.7748ZM19.8545 48.5C18.9782 44.2474 18.1071 40.0235 17.2373 35.8021H14.7139C14.7139 36.4102 14.736 36.9922 14.7074 37.5729C14.6876 38.1237 14.7959 38.6715 15.0238 39.1732C16.2569 42.069 17.4704 44.974 18.6892 47.8776C18.9886 48.5768 18.9886 48.5781 19.8558 48.5H19.8545ZM30.0524 48.4883C30.904 48.6042 30.9053 48.6042 31.2178 47.8581C32.4183 45 33.5746 42.1224 34.8376 39.2917C35.3584 38.1289 35.0811 36.9779 35.1996 35.7969H32.6683C31.7951 40.0365 30.9235 44.2669 30.0537 48.4883H30.0524ZM14.7399 34.3021C15.8142 34.3021 16.8363 34.3203 17.8649 34.2956C18.1694 34.3005 18.4634 34.1848 18.6829 33.9739C18.9024 33.7629 19.0296 33.4737 19.0368 33.1693C19.072 32.5326 18.6644 31.9479 18.0043 31.9102C16.9274 31.8464 15.8428 31.8932 14.7491 31.8932L14.7399 34.3021ZM35.1722 31.8607C34.6813 31.8607 34.2308 31.8607 33.779 31.8607C33.1631 31.8672 32.542 31.8347 31.9313 31.8985C31.6306 31.9335 31.3542 32.0806 31.1572 32.3105C30.9602 32.5403 30.8571 32.836 30.8684 33.1385C30.8797 33.4411 31.0047 33.7282 31.2184 33.9427C31.432 34.1571 31.7187 34.2831 32.0212 34.2956C32.4899 34.3216 32.9626 34.3086 33.4326 34.3099H35.1722V31.8607Z" fill="#FF9513"/>
<path d="M35.0896 0C35.4503 0.0820312 35.8149 0.152344 36.173 0.247396C39.7133 1.18359 42.1261 4.5026 41.8943 8.10286C41.789 9.88677 41.0638 11.5779 39.8442 12.884C38.6246 14.1901 36.9871 15.0293 35.2146 15.2565C31.1326 15.7904 27.2576 12.8802 26.7016 8.86328C26.1092 4.56641 28.9282 0.708333 33.1079 0.0885417C33.2177 0.0660397 33.326 0.0364643 33.4321 0L35.0896 0ZM34.2446 1.46484C33.0187 1.46459 31.8202 1.82781 30.8007 2.50861C29.7811 3.1894 28.9864 4.15719 28.5168 5.28962C28.0473 6.42205 27.924 7.66828 28.1626 8.87076C28.4013 10.0732 28.9911 11.178 29.8575 12.0453C30.7239 12.9126 31.828 13.5035 33.0302 13.7434C34.2324 13.9833 35.4788 13.8614 36.6117 13.393C37.7446 12.9246 38.7133 12.1309 39.3951 11.1121C40.077 10.0933 40.4415 8.89519 40.4425 7.66927C40.4428 6.02478 39.7902 4.44744 38.6279 3.284C37.4657 2.12055 35.8891 1.46622 34.2446 1.46484Z" fill="#FF9513"/>
<path d="M29.3399 7.68228C29.3381 6.70929 29.6251 5.75764 30.1645 4.94789C30.704 4.13814 31.4717 3.50672 32.3703 3.13359C33.2689 2.76047 34.258 2.66244 35.2124 2.85191C36.1668 3.04139 37.0434 3.50985 37.7314 4.19795C38.4193 4.88606 38.8875 5.76285 39.0767 6.71727C39.2659 7.67169 39.1677 8.6608 38.7943 9.55932C38.4209 10.4578 37.7893 11.2253 36.9794 11.7646C36.1695 12.3038 35.2178 12.5906 34.2448 12.5885C32.9464 12.5797 31.7038 12.0599 30.7858 11.1416C29.8678 10.2234 29.3484 8.98064 29.3399 7.68228ZM34.2682 4.20572C33.5832 4.20185 32.9125 4.40143 32.341 4.77917C31.7695 5.1569 31.3231 5.69578 31.0582 6.32752C30.7933 6.95926 30.7219 7.65542 30.8531 8.32777C30.9843 9.00012 31.3121 9.61839 31.795 10.1042C32.2779 10.5901 32.8942 10.9216 33.5658 11.0569C34.2373 11.1921 34.9339 11.1249 35.5672 10.8638C36.2005 10.6028 36.7421 10.1596 37.1233 9.59039C37.5044 9.02121 37.7081 8.35168 37.7083 7.66666C37.7063 6.75286 37.3439 5.87675 36.6999 5.22853C36.0558 4.5803 35.182 4.2123 34.2682 4.20442V4.20572Z" fill="#FF9513"/>
<path d="M34.9831 6.93878C35.1387 6.9286 35.2949 6.9286 35.4505 6.93878C35.8594 7.00258 36.0938 7.24997 36.0951 7.66404C36.0951 8.05466 35.8711 8.332 35.4896 8.37107C35.0383 8.42054 34.5829 8.42054 34.1315 8.37107C33.7539 8.3281 33.5339 8.05336 33.53 7.65753C33.5221 6.95831 33.5156 6.25909 33.53 5.55987C33.5263 5.46197 33.5425 5.36434 33.5776 5.27289C33.6127 5.18143 33.666 5.09806 33.7343 5.02782C33.8026 4.95758 33.8845 4.90193 33.9749 4.86425C34.0653 4.82656 34.1625 4.80762 34.2604 4.80857C34.4501 4.81324 34.6307 4.89104 34.7644 5.0257C34.8981 5.16037 34.9746 5.34149 34.9779 5.53122C35.0013 5.98174 34.9831 6.43487 34.9831 6.93878Z" fill="#FF9513"/>
</g>
<defs>
<clipPath id="clip0_392_1654">
<rect width="49.9049" height="50" fill="white"/>
</clipPath>
</defs>
</svg>
